<svg xmlns="http://www.w3.org/2000/svg" width="76" height="82" viewBox="0 0 76 82" fill="none">
  <defs>
    <linearGradient id="cardBg_figma" x1="0%" y1="0%" x2="100%" y2="100%">
      <stop offset="0%" stop-color="#1c2128"/>
      <stop offset="100%" stop-color="#0d1117"/>
    </linearGradient>
  </defs>
  <rect x="1" y="1" width="74" height="80" rx="12" fill="url(#cardBg_figma)" stroke="#30363d" stroke-width="1.2"/>
  <g transform="translate(22.0, 13.0) scale(0.2500)"><path fill="#0acf83" d="M45.5 129c11.9 0 21.5-9.6 21.5-21.5V86H45.5C33.6 86 24 95.6 24 107.5S33.6 129 45.5 129zm0 0"/><path fill="#a259ff" d="M24 64.5C24 52.6 33.6 43 45.5 43H67v43H45.5C33.6 86 24 76.4 24 64.5zm0 0"/><path fill="#f24e1e" d="M24 21.5C24 9.6 33.6 0 45.5 0H67v43H45.5C33.6 43 24 33.4 24 21.5zm0 0"/><path fill="#ff7262" d="M67 0h21.5C100.4 0 110 9.6 110 21.5S100.4 43 88.5 43H67zm0 0"/><path fill="#1abcfe" d="M110 64.5c0 11.9-9.6 21.5-21.5 21.5S67 76.4 67 64.5 76.6 43 88.5 43 110 52.6 110 64.5zm0 0"/></g>
  <text x="38" y="68" font-family="-apple-system, BlinkMacSystemFont, 'Segoe UI', Helvetica, Arial, sans-serif" font-size="10" font-weight="600" fill="#c9d1d9" text-anchor="middle">
    Figma
  </text>
</svg>